<svg viewBox="0 0 24 24" fill="none" xmlns="http://www.w3.org/2000/svg">
<path d="M20.997 21.004H2.99697C2.82651 21.0035 2.65901 20.9594 2.51037 20.8759C2.36174 20.7925 2.23691 20.6724 2.14774 20.5271C2.05856 20.3818 2.00801 20.2162 2.00088 20.0459C1.99374 19.8755 2.03026 19.7062 2.10697 19.554L11.107 1.554C11.1899 1.38759 11.3176 1.2476 11.4757 1.14975C11.6338 1.0519 11.816 1.00007 12.002 1.00007C12.1879 1.00007 12.3702 1.0519 12.5283 1.14975C12.6863 1.2476 12.814 1.38759 12.897 1.554L21.897 19.554C21.9741 19.707 22.0106 19.8772 22.003 20.0484C21.9954 20.2195 21.9439 20.3858 21.8536 20.5314C21.7633 20.6769 21.637 20.7968 21.487 20.8796C21.337 20.9624 21.1683 21.0052 20.997 21.004ZM4.61697 19.004H19.377L11.997 4.244L4.61697 19.004ZM10.997 9.004H12.997V15.004H10.997V9.004ZM11.997 18.254C11.6653 18.254 11.3473 18.1223 11.1127 17.8877C10.8782 17.6532 10.7465 17.3352 10.7465 17.0035C10.7465 16.6718 10.8782 16.3538 11.1127 16.1193C11.3473 15.8847 11.6653 15.753 11.997 15.753C12.3285 15.753 12.6464 15.8847 12.8809 16.1191C13.1153 16.3535 13.247 16.6715 13.247 17.003C13.247 17.3345 13.1153 17.6525 12.8809 17.8869C12.6464 18.1213 12.3285 18.253 11.997 18.253V18.254Z" fill="black"/>
</svg>
